<svg version="1.2" baseProfile="tiny-ps" xmlns="http://www.w3.org/2000/svg" viewBox="0 0 36 36" width="36" height="36">
	<title>pause-circle-new-svg</title>
	<style>
		tspan { white-space:pre }
		.shp0 { fill: none } 
		.shp1 { fill: none;stroke: #ffffff;stroke-width: 2.3 } 
		.shp2 { fill: #ffffff } 
	</style>
	  <filter id='shadow' color-interpolation-filters="sRGB">
    <feDropShadow dx="2" dy="2" stdDeviation="3" flood-opacity="0.5"/>
  </filter>
	<path id="backgroundrect" class="shp0" d="M-6 -6L94 -6L94 94L-6 94L-6 -6Z" />
	<g id="Layer">
		<path id="svg_13" class="shp1" d="M6.51 16.29C6.51 9.78 11.78 4.51 18.29 4.51C24.79 4.51 30.07 9.78 30.07 16.29C30.07 22.79 24.79 28.07 18.29 28.07C11.78 28.07 6.51 22.79 6.51 16.29Z" />
		<g id="svg_10">
			<path id="svg_11" class="shp2" d="M16.88 22.09L16.88 10.6C16.88 10.39 16.7 10.22 16.48 10.22L14.2 10.22C13.98 10.22 13.8 10.39 13.8 10.6L13.8 22.09C13.8 22.3 13.98 22.47 14.2 22.47L16.48 22.47C16.7 22.47 16.88 22.3 16.88 22.09Z" />
			<path id="svg_12" class="shp2" d="M21.59 10.22L19.31 10.22C19.09 10.22 18.92 10.39 18.92 10.6L18.92 22.09C18.92 22.3 19.09 22.47 19.31 22.47L21.59 22.47C21.81 22.47 21.98 22.3 21.98 22.09L21.98 10.6C21.98 10.39 21.81 10.22 21.59 10.22Z" />
		</g>
	</g>
</svg>